<svg height="496pt" viewBox="0 0 496 496" width="496pt" xmlns="http://www.w3.org/2000/svg"><path d="M402.832 325.504l9.398-19-30.742-30.742-19.008 9.398a103.017 103.017 0 0 0-21.953-9.101l-6.785-20.075h-43.484l-6.785 20.075a103.017 103.017 0 0 0-21.953 9.101l-19.008-9.398-30.742 30.742 9.398 19a101.646 101.646 0 0 0-3.047 5.953L176 317.418v-9.61c10.39-6.964 18.809-16.597 24.426-27.87C217.87 279.707 232 265.48 232 247.983v-41.468c9.29-3.313 16-12.114 16-22.532 0-10.902-7.352-20.023-17.32-22.933-6.465-37.883-36.926-67.2-75.254-72.176-4.067-5.371-10.442-8.89-17.672-8.89h-3.508c-7.23 0-13.605 3.519-17.672 8.89-38.3 4.977-68.781 34.313-75.254 72.176C31.352 163.96 24 173.082 24 183.984c0 10.418 6.71 19.22 16 22.532v41.468c0 17.313 13.84 31.371 31.55 31.907 5.618 11.296 14.044 20.941 24.45 27.925v9.61l-64.273 21.426A46.329 46.329 0 0 0 0 382.867v81.117h256.23c4.793 2.38 17.739 8.641 27.196 11.786l6.832 20.214h43.484l6.785-20.07a102.829 102.829 0 0 0 21.953-9.105l19.008 9.402 30.742-30.746-9.398-19a104.416 104.416 0 0 0 9.106-21.942l20.062-6.8v-43.48l-20.07-6.794a103.923 103.923 0 0 0-9.098-21.945zM261.055 353.12c8.96-19.941 28.793-33.137 50.945-33.137 30.871 0 56 25.121 56 56 0 30.883-25.129 56-56 56-15.105 0-29.488-6.175-40-16.918v-32.199c0-11.203-4.105-21.586-10.945-29.746zM256 382.867v65.117h-32v-51.308l-2.344-2.348c-8.808-8.805-13.656-20.52-13.656-32.973v-16.402l27.207 9.074A30.353 30.353 0 0 1 256 382.867zM64 431.984h144v16H64zm128-92.367v21.738c0 15.582 5.656 30.301 16 41.813v12.816H64v-12.816c10.344-11.504 16-26.223 16-41.813v-21.738l16.617-5.535c2.957 19.152 19.414 33.902 39.383 33.902s36.426-14.75 39.383-33.902zm24-131.633v12.45a31.492 31.492 0 0 0-8-3.313v-9.137zm-9.488 54.586A71.831 71.831 0 0 0 208 247.984v-13.773c4.762 2.773 8 7.879 8 13.773 0 6.504-3.91 12.082-9.488 14.586zM134.246 95.984h3.508c3.437 0 6.246 2.801 6.246 6.25a6.67 6.67 0 0 1-.176 1.512l-6.062 24.238h-3.524l-6.054-24.222a6.484 6.484 0 0 1-.184-1.528c0-3.449 2.809-6.25 6.246-6.25zm-56.82 28.746l11.414 22.832 14.312-7.16-12.847-25.687a71.513 71.513 0 0 1 22.129-8.914c.093.61.07 1.234.222 1.832l9.106 36.351h28.484l9.106-36.367c.144-.59.12-1.207.222-1.816a71.645 71.645 0 0 1 22.13 8.914l-12.849 25.695 14.313 7.16 11.426-22.84c9.597 9.45 16.476 21.618 19.566 35.262H57.848c3.097-13.644 9.976-25.805 19.578-35.262zM48 175.984h176c4.414 0 8 3.594 8 8 0 4.41-3.586 8-8 8H48c-4.414 0-8-3.59-8-8 0-4.406 3.586-8 8-8zm16 41.137a31.777 31.777 0 0 0-8 3.313v-12.45h8zm-8 30.863c0-5.894 3.238-11 8-13.773v13.773c0 4.993.512 9.875 1.488 14.586C59.91 260.066 56 254.488 56 247.984zm24 0v-40h112v40c0 30.883-25.129 56-56 56s-56-25.117-56-56zm56 72c8.426 0 16.48-1.527 24-4.199v12.2c0 13.234-10.77 24-24 24s-24-10.766-24-24v-12.2c7.52 2.672 15.574 4.2 24 4.2zM16 382.867a30.354 30.354 0 0 1 20.793-28.84L64 344.953v16.402c0 12.454-4.848 24.168-13.656 32.973L48 396.676v51.308H16zm400 3.383l-17.473 5.91-1.03 4.305a87.665 87.665 0 0 1-10.567 25.496l-2.32 3.77 8.175 16.55-14.504 14.504-16.547-8.183-3.765 2.32a87.029 87.029 0 0 1-25.504 10.574l-4.305 1.027-5.902 17.461h-20.516l-5.902-17.468-4.305-1.028c-4.582-1.093-12.656-4.543-19.527-7.703v-18.047c11.734 7.848 25.601 12.246 39.992 12.246 39.703 0 72-32.3 72-72 0-39.695-32.297-72-72-72-26.969 0-51.383 15.137-63.688 38.512-2.542-1.43-5.19-2.703-8.039-3.652l-6.832-2.282a88.885 88.885 0 0 1 3.621-6.542l2.32-3.778-8.175-16.55 14.504-14.505 16.547 8.184 3.765-2.32a87.144 87.144 0 0 1 25.504-10.578l4.305-1.024 5.91-17.465h20.516l5.902 17.473 4.305 1.023a87.32 87.32 0 0 1 25.504 10.579l3.765 2.32 16.547-8.184 14.504 14.504-8.176 16.551 2.32 3.77a87.319 87.319 0 0 1 10.567 25.496l1.031 4.3L416 365.723zm80-290.266c0-27.285-11.672-53.367-32.016-71.574C443.648 6.227 416.29-2.453 388.97.602c-42.114 4.703-77.352 38.425-83.793 80.16-5.488 35.496 8.87 70.793 37.465 92.113.504.375.918.895 1.39 1.32-4.886 4.399-8.031 10.711-8.031 17.79 0 10.417 6.71 19.218 16 22.53v1.47c0 26.472 21.527 48 48 48s48-21.528 48-48v-1.47c9.29-3.312 16-12.113 16-22.53 0-7.094-3.16-13.415-8.07-17.817.367-.316.687-.734 1.078-1.023C481.426 155.105 496 126.258 496 95.985zm-96 152c-17.648 0-32-14.351-32-32h64c0 17.649-14.352 32-32 32zm40-48h-80c-4.414 0-8-3.59-8-8 0-4.406 3.586-8 8-8h80c4.414 0 8 3.594 8 8 0 4.41-3.586 8-8 8zm-64-112h-8c-4.414 0-8-3.59-8-8 0-4.406 3.586-8 8-8s8 3.594 8 8zm32 80h-16v-64h16zm32 0h-16v-64h8c13.23 0 24-10.765 24-24 0-13.23-10.77-24-24-24s-24 10.77-24 24v8h-16v-8c0-13.23-10.77-24-24-24s-24 10.77-24 24c0 13.235 10.77 24 24 24h8v64h-16c-.07 0-.145.028-.215.028-2.234-3.028-4.68-5.785-7.586-7.953-23.832-17.786-35.793-47.227-31.207-76.848 5.36-34.73 34.695-62.785 69.762-66.707 23.117-2.582 45.367 4.457 62.558 19.832C470.273 51.504 480 73.25 480 95.984c0 25.594-11.84 49.028-32.496 64.29-2.809 2.074-5.192 4.769-7.367 7.726-.047 0-.09-.016-.137-.016zm-16-80v-8c0-4.406 3.586-8 8-8s8 3.594 8 8c0 4.41-3.586 8-8 8zm0 0" fill="#ed1c24"/><path d="M152 383.984h32v16h-32zm0 0" fill="#ed1c24"/></svg>