<svg xmlns="http://www.w3.org/2000/svg" viewBox="0 0 480 480"><path d="M440 0H40C17.944 0 0 17.944 0 40v280c0 22.056 17.944 40 40 40h134.416l-13.088 72h-31.432c-9.152 0-17.376 5.08-21.472 13.264-3.744 7.496-3.352 16.224 1.048 23.352S121.512 480 129.888 480h220.216c8.376 0 16.008-4.256 20.416-11.384s4.8-15.856 1.048-23.352C367.488 437.08 359.264 432 350.112 432H318.68l-13.088-72H440c22.056 0 40-17.944 40-40V40c0-22.056-17.944-40-40-40zM312 448h38.112a7.97 7.97 0 0 1 7.16 4.424c1.8 3.6.352 6.64-.344 7.784-.72 1.136-2.792 3.792-6.816 3.792H129.888c-4.024 0-6.104-2.656-6.808-3.8-.704-1.144-2.152-4.176-.344-7.784a7.957 7.957 0 0 1 7.152-4.416H232c4.416 0 8-3.584 8-8s-3.584-8-8-8h-54.416l13.088-72h98.648l13.096 72H280c-4.416 0-8 3.584-8 8s3.584 8 8 8h32zm152-128c0 13.232-10.768 24-24 24H40c-13.232 0-24-10.768-24-24v-24h448v24zm0-40H16V40c0-13.232 10.768-24 24-24h400c13.232 0 24 10.768 24 24v240z" fill="#ed1c24"/><path d="M216 160h-80V80c0-4.416-3.584-8-8-8-52.936 0-96 43.064-96 96s43.064 96 96 96 96-43.064 96-96c0-4.416-3.584-8-8-8zm-88 88c-44.112 0-80-35.888-80-80 0-41.408 31.632-75.576 72-79.6V168c0 4.416 3.584 8 8 8h79.6c-4.024 40.368-38.192 72-79.6 72z" fill="#ed1c24"/><path d="M160 40c-4.416 0-8 3.584-8 8v88c0 4.416 3.584 8 8 8h88c4.416 0 8-3.584 8-8 0-52.936-43.064-96-96-96zm8 88V56.4c37.736 3.76 67.84 33.864 71.6 71.6H168zm272-96H280c-4.416 0-8 3.584-8 8v216c0 4.416 3.584 8 8 8h160c4.416 0 8-3.584 8-8V40c0-4.416-3.584-8-8-8zm-8 216H288V48h144v200z" fill="#ed1c24"/><path d="M360 72h-48c-4.416 0-8 3.584-8 8s3.584 8 8 8h48c4.416 0 8-3.584 8-8s-3.584-8-8-8zm48 32h-96c-4.416 0-8 3.584-8 8s3.584 8 8 8h96c4.416 0 8-3.584 8-8s-3.584-8-8-8zm-48 32h-48c-4.416 0-8 3.584-8 8s3.584 8 8 8h48c4.416 0 8-3.584 8-8s-3.584-8-8-8zm48 32h-96c-4.416 0-8 3.584-8 8s3.584 8 8 8h96c4.416 0 8-3.584 8-8s-3.584-8-8-8zm-48 32h-48c-4.416 0-8 3.584-8 8s3.584 8 8 8h48c4.416 0 8-3.584 8-8s-3.584-8-8-8zM256 312h-32c-4.416 0-8 3.584-8 8s3.584 8 8 8h32c4.416 0 8-3.584 8-8s-3.584-8-8-8z" fill="#ed1c24"/></svg>